<?xml version="1.0" encoding="UTF-8" standalone="no"?>
<svg
   xmlns:dc="http://purl.org/dc/elements/1.1/"
   xmlns:cc="http://creativecommons.org/ns#"
   xmlns:rdf="http://www.w3.org/1999/02/22-rdf-syntax-ns#"
   xmlns:svg="http://www.w3.org/2000/svg"
   xmlns="http://www.w3.org/2000/svg"
   xmlns:sodipodi="http://sodipodi.sourceforge.net/DTD/sodipodi-0.dtd"
   xmlns:inkscape="http://www.inkscape.org/namespaces/inkscape"
   enable-background="new 0 0 32 32"
   version="1.1"
   viewBox="0 0 32 32"
   xml:space="preserve"
   id="svg2"
   inkscape:version="0.48.4 r9939"
   width="100%"
   height="100%"
   sodipodi:docname="mail.svg"><metadata
     id="metadata23"><rdf:RDF><cc:Work
         rdf:about=""><dc:format>image/svg+xml</dc:format><dc:type
           rdf:resource="http://purl.org/dc/dcmitype/StillImage" /><dc:title></dc:title></cc:Work></rdf:RDF></metadata><defs
     id="defs21" /><sodipodi:namedview
     pagecolor="#ffffff"
     bordercolor="#666666"
     borderopacity="1"
     objecttolerance="10"
     gridtolerance="10"
     guidetolerance="10"
     inkscape:pageopacity="0"
     inkscape:pageshadow="2"
     inkscape:window-width="1639"
     inkscape:window-height="1029"
     id="namedview19"
     showgrid="false"
     inkscape:zoom="7.375"
     inkscape:cx="16"
     inkscape:cy="16"
     inkscape:window-x="41"
     inkscape:window-y="21"
     inkscape:window-maximized="1"
     inkscape:current-layer="svg2" /><g
     id="g3173"><g
       style="fill:#4d4d4d;fill-opacity:1"
       id="g5"><path
         d="M 16,0 C 7.163,0 0,7.163 0,16 0,24.836 7.163,32 16,32 24.837,32 32,24.836 32,16 32,7.163 24.837,0 16,0 z"
         id="path7"
         inkscape:connector-curvature="0"
         style="fill:#4d4d4d;fill-opacity:1" /></g><g
       id="g3066"><g
         id="g9"><polygon
           style="fill:#ffffff"
           id="polygon11"
           points="6.518,12.119 6.518,21.815 11.707,15.291 " /><polygon
           style="fill:#ffffff"
           id="polygon13"
           points="12.472,15.758 7.11,22.5 24.867,22.5 19.5,15.746 15.989,17.908 " /><polygon
           style="fill:#ffffff"
           id="polygon15"
           points="25.482,9.5 6.518,9.5 6.518,11.076 15.988,16.864 25.482,11.017 " /><polygon
           style="fill:#ffffff"
           id="polygon17"
           points="25.482,12.062 20.263,15.276 25.482,21.843 " /></g></g></g></svg>