<?xml version="1.0" encoding="UTF-8" standalone="no"?>
<!-- Created with Inkscape (http://www.inkscape.org/) -->

<svg
   xmlns:dc="http://purl.org/dc/elements/1.1/"
   xmlns:cc="http://creativecommons.org/ns#"
   xmlns:rdf="http://www.w3.org/1999/02/22-rdf-syntax-ns#"
   xmlns:svg="http://www.w3.org/2000/svg"
   xmlns="http://www.w3.org/2000/svg"
   xmlns:sodipodi="http://sodipodi.sourceforge.net/DTD/sodipodi-0.dtd"
   xmlns:inkscape="http://www.inkscape.org/namespaces/inkscape"
   id="svg3159"
   version="1.1"
   inkscape:version="0.48.4 r9939"
   width="32"
   height="32"
   xml:space="preserve"
   sodipodi:docname="twitter.pdf"><metadata
     id="metadata3165"><rdf:RDF><cc:Work
         rdf:about=""><dc:format>image/svg+xml</dc:format><dc:type
           rdf:resource="http://purl.org/dc/dcmitype/StillImage" /><dc:title></dc:title></cc:Work></rdf:RDF></metadata><defs
     id="defs3163" /><sodipodi:namedview
     pagecolor="#ffffff"
     bordercolor="#666666"
     borderopacity="1"
     objecttolerance="10"
     gridtolerance="10"
     guidetolerance="10"
     inkscape:pageopacity="0"
     inkscape:pageshadow="2"
     inkscape:window-width="1639"
     inkscape:window-height="1029"
     id="namedview3161"
     showgrid="false"
     fit-margin-top="0"
     fit-margin-left="0"
     fit-margin-right="0"
     fit-margin-bottom="0"
     inkscape:zoom="12.961336"
     inkscape:cx="0.17972556"
     inkscape:cy="7.5030777"
     inkscape:window-x="41"
     inkscape:window-y="21"
     inkscape:window-maximized="1"
     inkscape:current-layer="g3167" /><g
     id="g3167"
     inkscape:groupmode="layer"
     inkscape:label="twitter"
     transform="matrix(1.25,0,0,-1.25,-28292.457,426.91661)"><g
       id="g5"
       style="fill:#4d4d4d;fill-opacity:1"
       transform="matrix(0.8,0,0,-0.8,22633.966,341.53329)"><path
         style="fill:#4d4d4d;fill-opacity:1"
         inkscape:connector-curvature="0"
         id="path7"
         d="M 16,0 C 7.163,0 0,7.163 0,16 0,24.836 7.163,32 16,32 24.837,32 32,24.836 32,16 32,7.163 24.837,0 16,0 z" /></g><g
       id="g3169"
       transform="matrix(0.06999819,0,0,0.06999819,22635.087,317.0542)"
       style="fill:#ffffff"><path
         d="M 260.879,162.303 C 256.418,144.041 245.789,127.663 232,115.038 205.172,90.752 168.016,79.108 132.113,81.42 c -34.511,2.11 -68.476,19.118 -88.867,47.344 1.785,-1.039 3.281,-2.476 4.984,-3.633 15.782,-11.422 36.797,-15.051 55.567,-9.953 11.387,2.942 21.73,9.309 29.988,17.629 -5.285,-0.355 -11.152,0.582 -14.98,4.563 -2.387,2.277 -3.375,6.019 -1.938,9.066 1.738,3.848 5.602,6.035 9.25,7.758 -11.976,-1.715 -25.027,3.867 -30.551,14.941 4.047,4.828 10.516,6.371 16.524,6.844 -6.992,2.039 -14.172,4.535 -19.473,9.75 -4.215,3.949 -6.953,9.43 -7.773,15.137 4.949,0.922 9.918,2.047 14.992,1.832 -11.5,5.988 -22.016,17.386 -21.098,31.168 21.809,-7.957 43.27,-17.032 63.758,-27.989 7.168,-3.933 13.129,-9.636 18.988,-15.254 5.68,14.743 11.77,29.54 21.008,42.473 4.949,6.805 10.785,13.137 17.957,17.617 -0.277,-2.226 -1.422,-4.175 -2.48,-6.105 5.355,4.039 11.558,7.168 18.293,7.957 -0.934,-4.027 -4.75,-6.133 -8.082,-7.965 5.027,1.488 9.925,3.68 15.222,4.039 1.41,0.051 3.43,-0.008 3.93,-1.652 0.762,-2.047 -1.312,-3.633 -2.883,-4.489 -5.777,-2.98 -12.461,-3.418 -18.34,-6.171 12.082,1.132 24.145,-3.551 33.305,-11.282 10.934,-9 18.16,-22.031 20.793,-35.886 9.668,-2.598 20.117,-0.719 29.188,3.14 -4.563,-10.332 -16.176,-15.047 -26.786,-15.965 8.817,-3.328 18.516,-3.894 27.836,-2.906 -7.386,-8.191 -18.816,-11.375 -29.566,-11.125 z"
         style="fill:#ffffff;fill-opacity:1;fill-rule:nonzero;stroke:none"
         id="path3171"
         inkscape:connector-curvature="0"
         sodipodi:nodetypes="ccccccccccccccccccccccccccccccccc" /></g></g></svg>